# xmcd
#
# Track frame offsets: 
#        150
#        9105
#        19760
#        29392
#        38592
#        47555
#        57105
#        65767
#        75495
#        84317
#        94890
#        105672
#        114877
#        126455
#        135777
#        145505
#        156575
#        167587
#        178465
#        188630
#        197137
#        207127
#        217510
#        228990
#        238912
#        247440
#        258597
#        268297
#        277297
#        287615
#        296512
#
# Disc length: 4072 seconds
#
# Revision: 5
# Processed by: cddbd v1.5.2PL0 Copyright (c) Steve Scherf et al.
# Submitted via: ExactAudioCopy v0.95b4
#
DISCID=bf0fe61f
DTITLE=Various Artist - That'll Flat... Git It! - Vol.1
DYEAR=1993
DGENRE=Rockabilly
TTITLE0=Joe Clay - Sixteen Chicks
TTITLE1=Ric Cartey - Born To Love One Woman
TTITLE2=David Houston - Sugar Sweet
TTITLE3=Lee Denson - New Shoes
TTITLE4=Hoyt Johnson - Little Boy Blue
TTITLE5=Janis Martin - Drugstore Rock 'n' Roll
TTITLE6=Dave Rich - Rosie Let's Get Cozy
TTITLE7=Dick Glasser - Catty Town
TTITLE8=Nan Castle - Star Light, Star Bright
TTITLE9=Morgan Twins - TV Hop
TTITLE10=Tommy Blake - Honky Tonk Mind
TTITLE11=The Sprouts - Teen Billy Baby
TTITLE12=Milton Allen - Don't Bug Me Baby
TTITLE13=Martha Carson - Now Stop
TTITLE14=Jimmie Rodgers Snow - Milkcow Blues
TTITLE15=Joe Clay - Duck Tail
TTITLE16=Ric Cartey - Heart Throb
TTITLE17=David Houston - One And Only
TTITLE18=Jimmy Dell - I've Got A Dollar
TTITLE19=Gene Morris - Lovin' Honey
TTITLE20=Janis Martin - Barefoot Baby
TTITLE21=Skeeter Bonn - Rock-A-Bye-Baby
TTITLE22=Joey Castle - That Ain't Nothing But Right
TTITLE23=Autry Inman - Mary Nell
TTITLE24=Art Wood - Hey Jibbo
TTITLE25=Tommy Blake - All Night Long
TTITLE26=The McCoys - Full-Grown Cat
TTITLE27=Ted Harris - Just Thought I'd Set You Straight
TTITLE28=Ric Cartey - Oooh-Wee
TTITLE29=Frankie Dee - Shake It Up Baby
TTITLE30=Gene Morris - Lovin' Honey
EXTD=YEAR: 1993
EXTT0=
EXTT1=
EXTT2=
EXTT3=
EXTT4=
EXTT5=
EXTT6=
EXTT7=
EXTT8=
EXTT9=
EXTT10=
EXTT11=
EXTT12=
EXTT13=
EXTT14=
EXTT15=
EXTT16=
EXTT17=
EXTT18=
EXTT19=
EXTT20=
EXTT21=
EXTT22=
EXTT23=
EXTT24=
EXTT25=
EXTT26=
EXTT27=
EXTT28=
EXTT29=
EXTT30=
PLAYORDER=
